<svg xmlns="http://www.w3.org/2000/svg" width="960" height="640" viewBox="0 0 960 640" role="img" aria-labelledby="title desc">
  <title id="title">Workflow</title>
  <desc id="desc">Demo preview artwork for the Workflow GPT Image 2 prompt recipe.</desc>
  <rect width="960" height="640" fill="#f8f8f5"/>
  <rect width="960" height="640" fill="#f8f8f5"/><g fill="#fbfbf8" stroke="#111418" stroke-width="6"><path d="M136 280 L224 232 L312 280 L224 328 Z"/><path d="M312 280 L400 232 L488 280 L400 328 Z"/><path d="M488 280 L576 232 L664 280 L576 328 Z"/><path d="M224 430 L312 382 L400 430 L312 478 Z"/><path d="M576 430 L664 382 L752 430 L664 478 Z"/></g><g stroke="#c95f45" stroke-width="8" fill="none"><path d="M312 280 H488"/><path d="M576 328 L664 382"/><path d="M400 382 L488 328"/></g><text x="190" y="286" font-size="22" font-weight="800">Idea</text><text x="352" y="286" font-size="22" font-weight="800">Prompt</text><text x="522" y="286" font-size="22" font-weight="800">Generate</text><text x="266" y="436" font-size="22" font-weight="800">Evaluate</text><text x="620" y="436" font-size="22" font-weight="800">Refine</text>
  <rect x="28" y="28" width="222" height="42" rx="21" fill="#111418" opacity=".9"/>
  <text x="50" y="56" font-family="Inter, Arial, sans-serif" font-size="18" font-weight="800" fill="#fbfbf8">preview demo</text>
</svg>
